<svg width="38" height="38" viewBox="0 0 38 38" fill="none" xmlns="http://www.w3.org/2000/svg">
<path fill-rule="evenodd" clip-rule="evenodd" d="M5.64984 4.9613H7.27137V31.9254C7.27137 33.112 8.23703 34.0778 9.42364 34.0778H29.6895V35.6992C29.6895 36.3124 29.1894 36.8125 28.5762 36.8125H5.64984C5.03665 36.8125 4.53656 36.3124 4.53656 35.6992V6.07458C4.53663 5.46146 5.03672 4.9613 5.64984 4.9613ZM9.42372 1.1875C8.81052 1.1875 8.31044 1.68759 8.31044 2.30078V31.9254C8.31044 32.5386 8.81052 33.0387 9.42372 33.0387H32.3502C32.9634 33.0387 33.4635 32.5386 33.4635 31.9254V7.40562H29.3977C28.2111 7.40562 27.2453 6.43996 27.2453 5.25328V1.1875H9.42372ZM12.5373 8.22537H22.1116C22.2493 8.22537 22.3815 8.17063 22.4789 8.0732C22.5764 7.97577 22.6311 7.84362 22.6311 7.70584C22.6311 7.56805 22.5764 7.4359 22.4789 7.33847C22.3815 7.24104 22.2493 7.1863 22.1116 7.1863H12.5373C12.3996 7.1863 12.2674 7.24104 12.17 7.33847C12.0725 7.4359 12.0178 7.56805 12.0178 7.70584C12.0178 7.84362 12.0725 7.97577 12.17 8.0732C12.2674 8.17063 12.3996 8.22537 12.5373 8.22537ZM12.5373 10.7303H17.9924C18.1302 10.7303 18.2624 10.6755 18.3598 10.5781C18.4572 10.4807 18.5119 10.3485 18.5119 10.2107C18.5119 10.0729 18.4572 9.94079 18.3598 9.84335C18.2624 9.74592 18.1302 9.69119 17.9924 9.69119H12.5373C12.3996 9.69119 12.2674 9.74592 12.17 9.84335C12.0725 9.94079 12.0178 10.0729 12.0178 10.2107C12.0178 10.3485 12.0725 10.4807 12.17 10.5781C12.2674 10.6755 12.3996 10.7303 12.5373 10.7303ZM28.2843 5.25335C28.2843 5.86655 28.7844 6.36663 29.3976 6.36663H33.3669C33.313 6.2484 33.2364 6.13952 33.1374 6.04052L28.6105 1.51362C28.5114 1.41461 28.4026 1.33802 28.2844 1.28406V5.25335H28.2843ZM12.9084 22.6592C12.8101 22.6594 12.7158 22.6986 12.6462 22.7681C12.5767 22.8377 12.5375 22.9319 12.5373 23.0303V27.6918C12.5373 27.8962 12.704 28.0629 12.9084 28.0629H14.7715C14.9759 28.0629 15.1426 27.8962 15.1426 27.6918V23.0303C15.1426 22.8259 14.9759 22.6592 14.7715 22.6592H12.9084ZM17.6064 20.3083C17.508 20.3085 17.4138 20.3477 17.3442 20.4172C17.2747 20.4868 17.2355 20.5811 17.2353 20.6794V27.6918C17.2353 27.8962 17.402 28.0629 17.6064 28.0629H19.4694C19.6738 28.0629 19.8405 27.8962 19.8405 27.6918V20.6794C19.8405 20.475 19.6738 20.3083 19.4694 20.3083H17.6064ZM22.3045 17.9574C22.2061 17.9576 22.1118 17.9967 22.0423 18.0663C21.9727 18.1358 21.9336 18.2301 21.9334 18.3285V27.6918C21.9334 27.8962 22.1001 28.0629 22.3045 28.0629H24.1675C24.3719 28.0629 24.5386 27.8962 24.5386 27.6918V18.3285C24.5386 18.1241 24.3719 17.9574 24.1675 17.9574H22.3045ZM27.0025 15.6065C26.9041 15.6067 26.8099 15.6459 26.7403 15.7154C26.6708 15.785 26.6316 15.8792 26.6314 15.9776V27.6918C26.6314 27.8962 26.7981 28.0629 27.0025 28.0629H28.8655C29.0699 28.0629 29.2366 27.8962 29.2366 27.6918V15.9776C29.2366 15.7732 29.0699 15.6065 28.8655 15.6065H27.0025ZM24.0313 11.6569L24.8353 11.4483C23.7689 13.0456 22.2778 14.474 20.4693 15.6233C18.3257 16.9857 15.742 17.9534 12.8954 18.3452C12.7592 18.3635 12.6359 18.4351 12.5525 18.5444C12.4692 18.6536 12.4326 18.7915 12.451 18.9276C12.4693 19.0638 12.5409 19.1871 12.6501 19.2705C12.7594 19.3538 12.8972 19.3904 13.0334 19.3721C16.0373 18.9587 18.7636 17.9375 21.0254 16.5C22.8816 15.3204 24.4287 13.8585 25.5648 12.2194L25.6047 12.8241C25.6226 13.1099 25.8688 13.3271 26.1546 13.3091C26.4404 13.2912 26.6576 13.045 26.6396 12.7592L26.4957 10.5841C26.4701 10.1959 26.0659 10.0589 25.698 10.1545L23.7716 10.6544C23.6393 10.6894 23.5262 10.7754 23.4571 10.8935C23.3879 11.0116 23.3684 11.1524 23.4027 11.2849C23.4371 11.4174 23.5224 11.5309 23.6402 11.6006C23.758 11.6703 23.8986 11.6906 24.0313 11.6569Z" fill="white"/>
</svg>
